{"title":"Paramore - Brick By Boring Brick [Music Video] 720p [Sbyky]","uid":9340261,"size":170377364,"categoryP":"video","categoryS":"music_videos","magnet":"?xt=urn:btih:8a6085b342d8af97ffa69ea75ca19e632c47fbdf&amp;dn=Paramore+-+Brick+By+Boring+Brick+%5BMusic+Video%5D+720p+%5BSbyky%5D&amp;tr=udp%3A%2F%2Ftracker.openbittorrent.com%3A80&amp;tr=udp%3A%2F%2Fopen.demonii.com%3A1337&amp;tr=udp%3A%2F%2Ftracker.coppersurfer.tk%3A6969&amp;tr=udp%3A%2F%2Fexodus.desync.com%3A6969","seeders":0,"leechers":0,"uploader":"Sbyky","files":1,"time":1386918329,"description":"[IMG]http://cdn.piczend.com/images/aIDoGcZ6/1385553631_brickbyboringbrick.jpg[/IMG]\n\nGeneral\nComplete name                            : Paramore - Brick By Boring Brick [Music Video] 720p [Sbyky].mp4\nFormat                                   : MPEG-4\nFormat profile                           : Base Media / Version 2\nCodec ID                                 : mp42\nFile size                                : 162 MiB\nDuration                                 : 4mn 19s\nOverall bit rate                         : 5 254 Kbps\nEncoded date                             : UTC 2013-12-12 01:41:58\nTagged date                              : UTC 2013-12-12 01:41:58\n\nVideo\nID                                       : 1\nFormat                                   : AVC\nFormat/Info                              : Advanced Video Codec\nFormat profile                           : &lt;a class=&quot;__cf_email__&quot; href=&quot;/cdn-cgi/l/email-protection&quot; data-cfemail=&quot;3578545c5b7579001b04&quot;&gt;[email&amp;#160;protected]&lt;/a&gt;&lt;script data-cfhash='f9e31' type=&quot;text/javascript&quot;&gt;\n/* &lt;![CDATA[ */!function(){try{var t=&quot;currentScript&quot;in document?document.currentScript:function(){for(var t=document.getElementsByTagName(&quot;script&quot;),e=t.length;e--;)if(t[e].getAttribute(&quot;data-cfhash&quot;))return t[e]}();if(t&amp;&amp;t.previousSibling){var e,r,n,i,c=t.previousSibling,a=c.getAttribute(&quot;data-cfemail&quot;);if(a){for(e=&quot;&quot;,r=parseInt(a.substr(0,2),16),n=2;a.length-n;n+=2)i=parseInt(a.substr(n,2),16)^r,e+=String.fromCharCode(i);e=document.createTextNode(e),c.parentNode.replaceChild(e,c)}t.parentNode.removeChild(t);}}catch(u){}}()/* ]]&gt; */&lt;/script&gt;\nFormat settings, CABAC                   : Yes\nFormat settings, ReFrames                : 1 frame\nCodec ID                                 : avc1\nCodec ID/Info                            : Advanced Video Coding\nDuration                                 : 4mn 19s\nBit rate                                 : 4 991 Kbps\nWidth                                    : 1 280 pixels\nHeight                                   : 720 pixels\nDisplay aspect ratio                     : 16:9\nFrame rate mode                          : Constant\nFrame rate                               : 50.000 fps\nColor space                              : YUV\nChroma subsampling                       : 4:2:0\nBit depth                                : 8 bits\nScan type                                : Progressive\nBits/(Pixel*Frame)                       : 0.108\nStream size                              : 154 MiB (95%)\nLanguage                                 : English\nEncoded date                             : UTC 2013-12-12 01:41:58\nTagged date                              : UTC 2013-12-12 01:41:58\n\nAudio\nID                                       : 2\nFormat                                   : AAC\nFormat/Info                              : Advanced Audio Codec\nFormat profile                           : LC\nCodec ID                                 : 40\nDuration                                 : 4mn 19s\nBit rate mode                            : Constant\nBit rate                                 : 256 Kbps\nNominal bit rate                         : 320 Kbps\nChannel(s)                               : 2 channels\nChannel positions                        : Front: L R\nSampling rate                            : 48.0 KHz\nCompression mode                         : Lossy\nStream size                              : 7.92 MiB (5%)\nLanguage                                 : English\nEncoded date                             : UTC 2013-12-12 01:41:58\nTagged date                              : UTC 2013-12-12 01:41:58\n\nShared By Sbyky\n[IMG]http://cdn.piczend.com/images/X3Ag13N3/1379453786_saythanks.gif[/IMG]\n[IMG]http://cdn.piczend.com/images/gGqhX2S8/1379453780_keepseeding.gif[/IMG]","torrent":{"xt":"urn:btih:8a6085b342d8af97ffa69ea75ca19e632c47fbdf","amp;dn":"Paramore+-+Brick+By+Boring+Brick+%5BMusic+Video%5D+720p+%5BSbyky%5D","amp;tr":["udp%3A%2F%2Ftracker.openbittorrent.com%3A80","udp%3A%2F%2Fopen.demonii.com%3A1337","udp%3A%2F%2Ftracker.coppersurfer.tk%3A6969","udp%3A%2F%2Fexodus.desync.com%3A6969"],"infoHash":"8a6085b342d8af97ffa69ea75ca19e632c47fbdf","infoHashBuffer":{"type":"Buffer","data":[138,96,133,179,66,216,175,151,255,166,158,167,92,161,158,99,44,71,251,223]},"announce":[],"urlList":[]}}